<?xml version="1.0" encoding="UTF-8"?>
<!DOCTYPE svg PUBLIC "-//W3C//DTD SVG 1.1//EN" "http://www.w3.org/Graphics/SVG/1.1/DTD/svg11.dtd">
<svg xmlns="http://www.w3.org/2000/svg" version="1.1" width="350px" height="350px" style="shape-rendering:geometricPrecision; text-rendering:geometricPrecision; image-rendering:optimizeQuality; fill-rule:evenodd; clip-rule:evenodd" xmlns:xlink="http://www.w3.org/1999/xlink">
<g><path style="opacity:1" fill="#3e464b" d="M 156.5,35.5 C 189.296,34.0128 214.796,46.6795 233,73.5C 249.523,104.884 244.023,131.718 216.5,154C 210.391,158.388 203.724,161.721 196.5,164C 181.059,167.389 173.726,161.223 174.5,145.5C 194.4,141.6 205.733,129.6 208.5,109.5C 205.871,88.2033 193.871,76.87 172.5,75.5C 152.097,77.126 137.264,87.126 128,105.5C 112.773,147.148 123.273,180.648 159.5,206C 164.38,208.607 169.38,210.94 174.5,213C 190.282,216.622 205.949,220.622 221.5,225C 245.085,238.675 254.918,259.175 251,286.5C 246.684,309.152 233.517,323.985 211.5,331C 203.322,332.991 196.489,330.824 191,324.5C 182.969,310.8 172.469,299.3 159.5,290C 102.351,267.524 68.8509,226.024 59,165.5C 56.2588,132.787 64.2588,103.121 83,76.5C 101.919,52.7915 126.419,39.1248 156.5,35.5 Z"/></g>
<g><path style="opacity:1" fill="#f5f5f4" d="M 79.5,155.5 C 88.9563,153.452 93.9563,157.285 94.5,167C 93.5534,172.436 90.2201,175.269 84.5,175.5C 82.0884,175.594 80.255,174.594 79,172.5C 77.2068,168.954 75.7068,165.287 74.5,161.5C 75.5096,158.859 77.1763,156.859 79.5,155.5 Z"/></g>
<g><path style="opacity:1" fill="#f6f6f5" d="M 94.5,198.5 C 105.935,197.102 110.768,202.102 109,213.5C 101.932,220.576 95.5984,219.909 90,211.5C 88.5783,208.97 88.245,206.303 89,203.5C 90.7297,201.598 92.563,199.931 94.5,198.5 Z"/></g>
<g><path style="opacity:1" fill="#f6f6f5" d="M 131.5,231.5 C 143.498,231.318 148.331,236.985 146,248.5C 138.741,256.446 131.408,256.446 124,248.5C 121.578,240.677 124.078,235.01 131.5,231.5 Z"/></g>
<g><path style="opacity:1" fill="#f7f6f6" d="M 176.5,255.5 C 187.964,253.926 194.964,258.759 197.5,270C 194.435,281.718 187.102,285.718 175.5,282C 167.328,276.46 165.495,269.294 170,260.5C 172.326,258.934 174.492,257.268 176.5,255.5 Z"/></g>
</svg>
